<?xml version="1.0" encoding="utf-8"?>
<!-- Generator: Adobe Illustrator 28.2.0, SVG Export Plug-In . SVG Version: 6.00 Build 0)  -->
<svg version="1.1" id="Layer_1" xmlns="http://www.w3.org/2000/svg" xmlns:xlink="http://www.w3.org/1999/xlink" x="0px" y="0px"
	 viewBox="0 0 2173.25 2173.25" style="enable-background:new 0 0 2173.25 2173.25;" xml:space="preserve">
<style type="text/css">
	.st0{fill:#828282;}
	.st1{fill:#40B2A6;}
	.st2{fill:url(#SVGID_1_);}
	.st3{fill:url(#SVGID_00000182495604809990989210000005206129921840247975_);}
</style>
<g>
	<g>
		<g>
			<path class="st0" d="M193.62,1405.02h-33.08l-5.42,11.93h-12.93l28.38-63.26h13.02l28.38,63.26h-13.02L193.62,1405.02z
				 M177.07,1366.98l-11.75,26.93h23.5L177.07,1366.98z"/>
			<path class="st0" d="M234.07,1372.4v23.32c0,6.77,3.71,11.93,10.76,11.93c6.78,0,11.38-5.69,11.38-12.47v-22.78h10.94v44.64
				h-9.85l-0.73-6.05c-4.61,4.52-8.86,6.68-15.09,6.68c-10.66,0-18.44-8.04-18.44-21.87v-23.41H234.07z"/>
			<path class="st0" d="M332.19,1353.78v63.17h-10.3l-0.72-6.15c-3.44,5.33-8.95,7.14-14.37,7.14c-13.1,0-22.96-8.68-22.96-23.31
				c0-15.37,9.67-23.32,22.68-23.32c4.7,0,12.02,2.53,14.64,7.14v-24.67H332.19z M294.87,1394.63c0,7.77,5.61,13.1,12.65,13.1
				c6.96,0,12.93-5.06,12.93-13.1c0-7.77-5.97-13.02-12.93-13.02C300.47,1381.62,294.87,1386.58,294.87,1394.63z"/>
			<path class="st0" d="M362.8,1359.83c0,8.59-13.02,8.59-13.02,0C349.79,1351.25,362.8,1351.25,362.8,1359.83z M350.78,1372.22
				v44.73h11.03v-44.73H350.78z"/>
			<path class="st0" d="M396.31,1359.83v12.65h12.29v9.49h-12.38v19.25c0,4.25,2.35,6.33,5.78,6.33c1.72,0,3.71-0.54,5.33-1.35
				l3.07,9.39c-3.16,1.27-5.78,1.81-9.13,1.9c-9.67,0.36-16-5.15-16-16.27v-19.25h-8.31v-9.49h8.31v-11.47L396.31,1359.83z"/>
			<path class="st0" d="M501.11,1416.95h-47.35c0-21.06,0-42.2,0-63.26h47.35v11.57H465.6v14.55h34.25v11.12H465.6v14.28h35.51
				V1416.95z"/>
			<path class="st0" d="M548.8,1372.4H562v0.36l-14.64,21.6l15.55,22.32v0.27h-13.19l-9.67-14.91l-9.67,14.91h-13.19v-0.27
				l15.54-22.32l-14.64-21.6v-0.36h13.2l8.76,15.09L548.8,1372.4z"/>
			<path class="st0" d="M577.52,1435.57v-63.17h10.3l0.73,6.15c3.43-4.97,9.4-7.14,14.46-7.14c13.74,0,22.87,10.22,22.87,23.32
				c0,13.01-8.23,23.31-22.5,23.31c-4.7,0-11.66-1.45-14.82-6.33v23.86H577.52z M614.84,1394.72c0-6.96-4.7-12.65-12.65-12.65
				c-7.95,0-12.65,5.69-12.65,12.65c0,6.96,5.15,12.65,12.65,12.65C609.69,1407.37,614.84,1401.68,614.84,1394.72z"/>
			<path class="st0" d="M652.41,1398.61c0.72,5.52,5.51,9.49,13.28,9.49c4.07,0,9.4-1.54,11.93-4.16l7.05,6.96
				c-4.7,4.88-12.38,7.23-19.16,7.23c-15.37,0-24.49-9.49-24.49-23.77c0-13.56,9.22-23.31,23.68-23.31
				c14.91,0,24.22,9.21,22.5,27.56H652.41z M676.63,1389.48c-0.73-5.78-5.24-8.68-11.57-8.68c-5.97,0-10.85,2.89-12.47,8.68H676.63z
				"/>
			<path class="st0" d="M714.92,1372.4l0.82,5.15c3.43-5.51,8.04-6.33,12.56-6.33c4.6,0,9.04,1.8,11.48,4.25l-4.97,9.58
				c-2.26-1.89-4.34-2.89-7.95-2.89c-5.78,0-11.12,3.07-11.12,11.29v23.5h-11.03v-44.56H714.92z"/>
			<path class="st0" d="M771.29,1359.83v12.65h12.29v9.49H771.2v19.25c0,4.25,2.35,6.33,5.78,6.33c1.72,0,3.7-0.54,5.33-1.35
				l3.07,9.39c-3.16,1.27-5.78,1.81-9.13,1.9c-9.67,0.36-16-5.15-16-16.27v-19.25h-8.31v-9.49h8.31v-11.47L771.29,1359.83z"/>
			<path class="st0" d="M812.84,1359.83c0,8.59-13.02,8.59-13.02,0C799.82,1351.25,812.84,1351.25,812.84,1359.83z M800.82,1372.22
				v44.73h11.03v-44.73H800.82z"/>
			<path class="st0" d="M859.91,1384.24c-3.16-2.98-6.78-3.98-11.03-3.98c-5.24,0-8.13,1.63-8.13,4.43c0,2.89,2.62,4.52,8.32,4.88
				c8.4,0.54,19.07,2.44,19.07,14.28c0,7.86-6.42,14.64-19.16,14.64c-7.05,0-14.09-1.17-20.6-7.95l5.43-7.86
				c3.16,3.53,10.39,6.15,15.36,6.24c4.16,0.09,8.04-2.08,8.04-5.33c0-3.07-2.53-4.34-8.86-4.7c-8.4-0.64-18.44-3.71-18.44-13.83
				c0-10.3,10.66-13.91,18.8-13.91c6.96,0,12.2,1.35,17.35,5.87L859.91,1384.24z"/>
			<path class="st0" d="M893.6,1398.61c0.72,5.52,5.51,9.49,13.28,9.49c4.07,0,9.4-1.54,11.93-4.16l7.05,6.96
				c-4.7,4.88-12.38,7.23-19.16,7.23c-15.37,0-24.49-9.49-24.49-23.77c0-13.56,9.22-23.31,23.68-23.31
				c14.91,0,24.22,9.21,22.5,27.56H893.6z M917.82,1389.48c-0.73-5.78-5.24-8.68-11.57-8.68c-5.97,0-10.85,2.89-12.47,8.68H917.82z"
				/>
			<path class="st0" d="M1029.75,1409c-6.5,6.42-14.91,9.4-24.03,9.4c-23.5,0-33.44-16.18-33.53-32.62
				c-0.09-16.54,10.66-33.35,33.53-33.35c8.58,0,16.72,3.25,23.22,9.67l-7.95,7.68c-4.16-4.06-9.76-5.96-15.27-5.96
				c-15.27,0-21.87,11.39-21.78,21.96c0.09,10.48,6.15,21.41,21.78,21.41c5.51,0,11.75-2.26,15.9-6.42L1029.75,1409z"/>
			<path class="st0" d="M1088.01,1394.72c0,12.83-8.77,23.22-23.22,23.22c-14.46,0-23.14-10.39-23.14-23.22
				c0-12.75,8.86-23.22,23.05-23.22S1088.01,1381.97,1088.01,1394.72z M1052.68,1394.72c0,6.78,4.07,13.1,12.11,13.1
				s12.11-6.33,12.11-13.1c0-6.69-4.7-13.19-12.11-13.19C1056.83,1381.53,1052.68,1388.03,1052.68,1394.72z"/>
			<path class="st0" d="M1134.25,1416.95v-23.86c0-5.88-3.07-11.21-9.13-11.21c-5.96,0-9.49,5.33-9.49,11.21v23.86h-11.03v-44.64
				h10.21l0.82,5.42c2.35-4.52,7.5-6.14,11.75-6.14c5.33,0,10.66,2.17,13.19,8.32c3.98-6.33,9.13-8.14,14.92-8.14
				c12.65,0,18.89,7.77,18.89,21.15v24.04h-11.03v-24.04c0-5.87-2.44-10.84-8.4-10.84c-5.97,0-9.67,5.15-9.67,11.03v23.86H1134.25z"
				/>
			<path class="st0" d="M1193.68,1435.57v-63.17h10.3l0.73,6.15c3.43-4.97,9.4-7.14,14.46-7.14c13.74,0,22.87,10.22,22.87,23.32
				c0,13.01-8.23,23.31-22.5,23.31c-4.7,0-11.66-1.45-14.82-6.33v23.86H1193.68z M1231,1394.72c0-6.96-4.7-12.65-12.65-12.65
				c-7.95,0-12.65,5.69-12.65,12.65c0,6.96,5.15,12.65,12.65,12.65C1225.85,1407.37,1231,1401.68,1231,1394.72z"/>
			<path class="st0" d="M1274.71,1359.83v12.65h12.29v9.49h-12.38v19.25c0,4.25,2.35,6.33,5.78,6.33c1.72,0,3.71-0.54,5.33-1.35
				l3.07,9.39c-3.16,1.27-5.78,1.81-9.13,1.9c-9.67,0.36-16-5.15-16-16.27v-19.25h-8.31v-9.49h8.31v-11.47L1274.71,1359.83z"/>
			<path class="st0" d="M1339.59,1372.4h10.57v44.56h-10.39l-0.54-6.5c-2.53,5.24-9.49,7.77-14.46,7.86
				c-13.19,0.09-22.96-8.05-22.96-23.68c0-15.37,10.22-23.41,23.22-23.32c5.97,0,11.66,2.81,14.19,7.23L1339.59,1372.4z
				 M1312.84,1394.63c0,8.49,5.87,13.55,13.19,13.55c17.35,0,17.35-27.02,0-27.02C1318.71,1381.16,1312.84,1386.13,1312.84,1394.63z
				"/>
			<path class="st0" d="M1378.6,1353.78v24.67c2.62-4.61,9.94-7.14,14.64-7.14c13.01,0,22.68,7.95,22.68,23.32
				c0,14.64-9.85,23.31-22.96,23.31c-5.42,0-10.94-1.81-14.37-7.14l-0.73,6.15h-10.3v-63.17H1378.6z M1379.32,1394.63
				c0,8.04,5.97,13.1,12.93,13.1c7.05,0,12.65-5.33,12.65-13.1c0-8.05-5.61-13.02-12.65-13.02
				C1385.29,1381.62,1379.32,1386.86,1379.32,1394.63z"/>
			<path class="st0" d="M1444.01,1353.78v63.17h-10.94v-63.17H1444.01z"/>
			<path class="st0" d="M1472.1,1398.61c0.72,5.52,5.51,9.49,13.28,9.49c4.07,0,9.4-1.54,11.93-4.16l7.05,6.96
				c-4.7,4.88-12.38,7.23-19.16,7.23c-15.37,0-24.49-9.49-24.49-23.77c0-13.56,9.22-23.31,23.68-23.31
				c14.91,0,24.22,9.21,22.5,27.56H1472.1z M1496.32,1389.48c-0.73-5.78-5.24-8.68-11.57-8.68c-5.97,0-10.85,2.89-12.47,8.68
				H1496.32z"/>
			<path class="st0" d="M1608.25,1409c-6.5,6.42-14.91,9.4-24.03,9.4c-23.5,0-33.44-16.18-33.53-32.62
				c-0.09-16.54,10.66-33.35,33.53-33.35c8.58,0,16.72,3.25,23.22,9.67l-7.95,7.68c-4.16-4.06-9.76-5.96-15.27-5.96
				c-15.27,0-21.87,11.39-21.78,21.96c0.1,10.48,6.15,21.41,21.78,21.41c5.51,0,11.75-2.26,15.9-6.42L1608.25,1409z"/>
			<path class="st0" d="M1666.51,1394.72c0,12.83-8.77,23.22-23.22,23.22c-14.46,0-23.14-10.39-23.14-23.22
				c0-12.75,8.86-23.22,23.05-23.22C1657.38,1371.5,1666.51,1381.97,1666.51,1394.72z M1631.17,1394.72c0,6.78,4.07,13.1,12.11,13.1
				c8.04,0,12.11-6.33,12.11-13.1c0-6.69-4.7-13.19-12.11-13.19C1635.33,1381.53,1631.17,1388.03,1631.17,1394.72z"/>
			<path class="st0" d="M1715.91,1416.95v-23.31c0-6.78-3.71-11.93-10.75-11.93c-6.78,0-11.39,5.69-11.39,12.47v22.77h-10.94v-44.64
				h9.85l0.72,6.06c4.52-4.43,9.04-6.69,14.64-6.69c10.48,0,18.89,7.86,18.89,21.87v23.41H1715.91z"/>
			<path class="st0" d="M1774.54,1384.24c-3.16-2.98-6.78-3.98-11.03-3.98c-5.24,0-8.13,1.63-8.13,4.43c0,2.89,2.62,4.52,8.32,4.88
				c8.4,0.54,19.07,2.44,19.07,14.28c0,7.86-6.42,14.64-19.16,14.64c-7.05,0-14.09-1.17-20.6-7.95l5.43-7.86
				c3.16,3.53,10.39,6.15,15.36,6.24c4.16,0.09,8.04-2.08,8.04-5.33c0-3.07-2.53-4.34-8.86-4.7c-8.4-0.64-18.44-3.71-18.44-13.83
				c0-10.3,10.66-13.91,18.8-13.91c6.96,0,12.2,1.35,17.35,5.87L1774.54,1384.24z"/>
			<path class="st0" d="M1808.23,1398.61c0.72,5.52,5.51,9.49,13.28,9.49c4.07,0,9.4-1.54,11.93-4.16l7.05,6.96
				c-4.7,4.88-12.38,7.23-19.16,7.23c-15.37,0-24.49-9.49-24.49-23.77c0-13.56,9.22-23.31,23.68-23.31
				c14.91,0,24.22,9.21,22.5,27.56H1808.23z M1832.45,1389.48c-0.73-5.78-5.24-8.68-11.57-8.68c-5.97,0-10.85,2.89-12.47,8.68
				H1832.45z"/>
			<path class="st0" d="M1872.55,1359.83c0,8.59-13.02,8.59-13.02,0C1859.53,1351.25,1872.55,1351.25,1872.55,1359.83z
				 M1860.53,1372.22v44.73h11.03v-44.73H1860.53z"/>
			<path class="st0" d="M1901.46,1353.78v63.17h-10.94v-63.17H1901.46z"/>
		</g>
	</g>
	<g>
		<path class="st1" d="M1655.14,751.58c-70.66,0-134.6,30.54-180.04,77.44c-44.64,47.64-74.39,113.11-74.39,186.76
			c0,53.13,16.12,102.66,42.45,144.07l53.8-53.01c-14.78-26.87-23.33-57.78-23.33-91.06c0-53.56,20.83-99.73,53.56-133.93
			c32.73-34.26,78.11-55.82,127.95-55.82c61.44,0,114.63,25.22,147.55,75.43l49.16-54.9
			C1806.54,786.57,1736.79,751.58,1655.14,751.58z M1827.79,1079.72c-26.75,78.91-93.75,124.28-172.65,124.28
			c-24.49,0-47.94-5.25-69.38-14.66l-55.82,55.03c36.83,21.62,79.64,34.02,125.2,34.02c121.29,0,216.5-80.31,246.31-198.67H1827.79z
			"/>
		<path class="st1" d="M472.55,1121.42H285.79c-20.09,47.62-46.13,110.12-62.5,153.27h-81.1l209.08-527.53h55.06l209.08,527.53
			h-80.36L472.55,1121.42z M314.07,1050.73h129.47l-63.99-183.78L314.07,1050.73z"/>
		<path class="st1" d="M711.01,1199.54h241.82v75.15H635.11V754.6h316.97v75.15H711.01v146.58h235.87v75.89H711.01V1199.54z"/>
		<linearGradient id="SVGID_1_" gradientUnits="userSpaceOnUse" x1="1383.9192" y1="660.8655" x2="1590.6086" y2="1228.74">
			<stop  offset="0.0174" style="stop-color:#EBCD67"/>
			<stop  offset="0.0701" style="stop-color:#DEBA52"/>
			<stop  offset="0.165" style="stop-color:#CA9E32"/>
			<stop  offset="0.2566" style="stop-color:#BC8A1B"/>
			<stop  offset="0.3425" style="stop-color:#B37D0D"/>
			<stop  offset="0.4172" style="stop-color:#B07908"/>
			<stop  offset="0.5259" style="stop-color:#BB881A"/>
			<stop  offset="0.742" style="stop-color:#D6B047"/>
			<stop  offset="0.7757" style="stop-color:#DBB74F"/>
			<stop  offset="1" style="stop-color:#C0942A"/>
		</linearGradient>
		<path class="st2" d="M2031.06,737.68l-135.85,44.43l26.14,23.45l-214.95,239.98l-73.25-38.7l-198.47,195.68h-81.22h-238.82
			c75.13-62.49,94.48-75.86,168.17-136.9c140.62-98.2,87.05-314.72-110.12-314.72c-108.67,0-168.17,75.91-181.59,168.89l75.18,5.94
			c8.93-58,42.42-99.7,106.4-99.7c121.27,0,141.34,123.54,59.5,182.31h0.77l-244.8,208.32v58.05h476.19l181.83-179.12l76.39,40.39
			l252.67-282.08l26.38,23.66L2031.06,737.68z"/>
	</g>
</g>
</svg>
