<?xml version="1.0" encoding="utf-8"?>
<!-- Generator: Adobe Illustrator 28.2.0, SVG Export Plug-In . SVG Version: 6.00 Build 0)  -->
<svg version="1.1" id="Layer_1" xmlns="http://www.w3.org/2000/svg" xmlns:xlink="http://www.w3.org/1999/xlink" x="0px" y="0px"
	 viewBox="0 0 2173.25 991.8" style="enable-background:new 0 0 2173.25 991.8;" xml:space="preserve">
<style type="text/css">
	.st0{fill:#828282;}
	.st1{fill:#40B2A6;}
	.st2{fill:url(#SVGID_1_);}
	.st3{fill:url(#SVGID_00000130648417230811013720000013743094115181580695_);}
</style>
<g>
	<g>
		<g>
			<path class="st0" d="M122.84,839.53h-35.7l-5.85,12.88H67.34l30.63-68.27h14.05l30.63,68.27h-14.05L122.84,839.53z
				 M104.99,798.47l-12.68,29.06h25.36L104.99,798.47z"/>
			<path class="st0" d="M166.5,804.32v25.17c0,7.31,4,12.87,11.61,12.87c7.32,0,12.29-6.15,12.29-13.46v-24.58h11.8v48.18h-10.63
				l-0.78-6.53c-4.98,4.87-9.56,7.21-16.29,7.21c-11.51,0-19.9-8.68-19.9-23.6v-25.26H166.5z"/>
			<path class="st0" d="M272.4,784.23v68.18h-11.12l-0.78-6.63c-3.71,5.75-9.66,7.71-15.51,7.71c-14.14,0-24.78-9.37-24.78-25.16
				c0-16.59,10.43-25.17,24.48-25.17c5.07,0,12.97,2.73,15.8,7.71v-26.63H272.4z M232.11,828.32c0,8.38,6.05,14.14,13.65,14.14
				c7.51,0,13.95-5.46,13.95-14.14c0-8.39-6.44-14.05-13.95-14.05C238.16,814.27,232.11,819.63,232.11,828.32z"/>
			<path class="st0" d="M305.43,790.76c0,9.27-14.05,9.27-14.05,0C291.39,781.5,305.43,781.5,305.43,790.76z M292.46,804.13v48.28
				h11.9v-48.28H292.46z"/>
			<path class="st0" d="M341.6,790.76v13.65h13.27v10.24h-13.37v20.78c0,4.58,2.54,6.83,6.24,6.83c1.86,0,4-0.59,5.75-1.46
				l3.32,10.14c-3.41,1.37-6.24,1.95-9.85,2.05c-10.44,0.39-17.27-5.56-17.27-17.56v-20.78h-8.97v-10.24h8.97v-12.38L341.6,790.76z"
				/>
			<path class="st0" d="M454.71,852.41H403.6c0-22.73,0-45.55,0-68.27h51.11v12.48h-38.33v15.7h36.96v12h-36.96v15.42h38.33V852.41z
				"/>
			<path class="st0" d="M506.18,804.32h14.24v0.39l-15.8,23.31l16.78,24.09v0.3h-14.24l-10.44-16.09l-10.43,16.09h-14.24v-0.3
				l16.77-24.09l-15.8-23.31v-0.39h14.25l9.46,16.29L506.18,804.32z"/>
			<path class="st0" d="M537.17,872.5v-68.18h11.12l0.78,6.63c3.7-5.36,10.14-7.71,15.6-7.71c14.82,0,24.68,11.03,24.68,25.17
				c0,14.04-8.88,25.16-24.29,25.16c-5.07,0-12.58-1.56-15.99-6.83v25.75H537.17z M577.45,828.41c0-7.52-5.07-13.65-13.65-13.65
				s-13.65,6.14-13.65,13.65c0,7.51,5.56,13.65,13.65,13.65C571.89,842.07,577.45,835.92,577.45,828.41z"/>
			<path class="st0" d="M618,832.61c0.78,5.95,5.95,10.24,14.34,10.24c4.39,0,10.14-1.66,12.88-4.49l7.61,7.51
				c-5.07,5.27-13.36,7.8-20.67,7.8c-16.59,0-26.43-10.24-26.43-25.65c0-14.63,9.95-25.16,25.55-25.16
				c16.09,0,26.14,9.95,24.29,29.75H618z M644.14,822.76c-0.78-6.24-5.66-9.37-12.48-9.37c-6.44,0-11.71,3.12-13.46,9.37H644.14z"/>
			<path class="st0" d="M685.46,804.32l0.88,5.56c3.7-5.95,8.68-6.83,13.56-6.83c4.97,0,9.75,1.95,12.39,4.58l-5.37,10.34
				c-2.44-2.04-4.68-3.12-8.58-3.12c-6.24,0-12,3.32-12,12.19v25.36h-11.9v-48.09H685.46z"/>
			<path class="st0" d="M746.29,790.76v13.65h13.27v10.24H746.2v20.78c0,4.58,2.54,6.83,6.24,6.83c1.86,0,4-0.59,5.75-1.46
				l3.32,10.14c-3.41,1.37-6.24,1.95-9.85,2.05c-10.43,0.39-17.27-5.56-17.27-17.56v-20.78h-8.97v-10.24h8.97v-12.38L746.29,790.76z
				"/>
			<path class="st0" d="M791.14,790.76c0,9.27-14.05,9.27-14.05,0C777.09,781.5,791.14,781.5,791.14,790.76z M778.17,804.13v48.28
				h11.9v-48.28H778.17z"/>
			<path class="st0" d="M841.94,817.1c-3.41-3.22-7.32-4.29-11.9-4.29c-5.66,0-8.78,1.76-8.78,4.78c0,3.12,2.83,4.87,8.97,5.27
				c9.07,0.59,20.58,2.64,20.58,15.41c0,8.49-6.92,15.8-20.68,15.8c-7.61,0-15.21-1.27-22.24-8.58l5.86-8.49
				c3.41,3.81,11.21,6.63,16.58,6.73c4.49,0.1,8.68-2.24,8.68-5.75c0-3.32-2.73-4.69-9.56-5.07c-9.07-0.69-19.9-4-19.9-14.93
				c0-11.12,11.51-15.02,20.29-15.02c7.51,0,13.17,1.46,18.73,6.34L841.94,817.1z"/>
			<path class="st0" d="M878.3,832.61c0.78,5.95,5.95,10.24,14.34,10.24c4.39,0,10.14-1.66,12.88-4.49l7.61,7.51
				c-5.07,5.27-13.36,7.8-20.67,7.8c-16.59,0-26.43-10.24-26.43-25.65c0-14.63,9.95-25.16,25.55-25.16
				c16.09,0,26.14,9.95,24.29,29.75H878.3z M904.44,822.76c-0.78-6.24-5.66-9.37-12.48-9.37c-6.44,0-11.71,3.12-13.46,9.37H904.44z"
				/>
			<path class="st0" d="M1025.24,843.82c-7.02,6.92-16.09,10.14-25.94,10.14c-25.36,0-36.09-17.46-36.19-35.21
				c-0.1-17.85,11.51-35.99,36.19-35.99c9.26,0,18.05,3.51,25.07,10.44l-8.58,8.29c-4.49-4.38-10.54-6.44-16.48-6.44
				c-16.48,0-23.61,12.29-23.51,23.7c0.1,11.31,6.63,23.11,23.51,23.11c5.95,0,12.68-2.44,17.16-6.92L1025.24,843.82z"/>
			<path class="st0" d="M1088.12,828.41c0,13.85-9.46,25.07-25.07,25.07c-15.61,0-24.97-11.22-24.97-25.07
				c0-13.76,9.56-25.07,24.87-25.07S1088.12,814.66,1088.12,828.41z M1049.99,828.41c0,7.32,4.39,14.14,13.07,14.14
				s13.07-6.83,13.07-14.14c0-7.22-5.07-14.24-13.07-14.24C1054.47,814.18,1049.99,821.2,1049.99,828.41z"/>
			<path class="st0" d="M1138.03,852.41v-25.75c0-6.35-3.32-12.1-9.85-12.1c-6.44,0-10.24,5.75-10.24,12.1v25.75h-11.9v-48.18h11.02
				l0.88,5.85c2.53-4.87,8.09-6.63,12.68-6.63c5.75,0,11.51,2.34,14.24,8.97c4.29-6.83,9.86-8.78,16.1-8.78
				c13.65,0,20.39,8.39,20.39,22.82v25.95h-11.9v-25.95c0-6.34-2.64-11.7-9.07-11.7c-6.44,0-10.44,5.55-10.44,11.9v25.75H1138.03z"
				/>
			<path class="st0" d="M1202.17,872.5v-68.18h11.12l0.78,6.63c3.7-5.36,10.14-7.71,15.6-7.71c14.82,0,24.68,11.03,24.68,25.17
				c0,14.04-8.88,25.16-24.29,25.16c-5.07,0-12.58-1.56-15.99-6.83v25.75H1202.17z M1242.45,828.41c0-7.52-5.07-13.65-13.65-13.65
				s-13.65,6.14-13.65,13.65c0,7.51,5.56,13.65,13.65,13.65S1242.45,835.92,1242.45,828.41z"/>
			<path class="st0" d="M1289.62,790.76v13.65h13.27v10.24h-13.37v20.78c0,4.58,2.54,6.83,6.24,6.83c1.86,0,4-0.59,5.75-1.46
				l3.32,10.14c-3.41,1.37-6.24,1.95-9.85,2.05c-10.43,0.39-17.27-5.56-17.27-17.56v-20.78h-8.97v-10.24h8.97v-12.38L1289.62,790.76
				z"/>
			<path class="st0" d="M1359.64,804.32h11.41v48.09h-11.22l-0.58-7.02c-2.73,5.66-10.24,8.38-15.6,8.49
				c-14.24,0.1-24.78-8.69-24.78-25.55c0-16.59,11.03-25.26,25.07-25.17c6.44,0,12.59,3.03,15.31,7.8L1359.64,804.32z
				 M1330.76,828.32c0,9.17,6.34,14.63,14.24,14.63c18.73,0,18.73-29.16,0-29.16C1337.1,813.78,1330.76,819.14,1330.76,828.32z"/>
			<path class="st0" d="M1401.74,784.23v26.63c2.83-4.98,10.73-7.71,15.8-7.71c14.04,0,24.48,8.58,24.48,25.17
				c0,15.8-10.63,25.16-24.78,25.16c-5.85,0-11.8-1.95-15.51-7.71l-0.78,6.63h-11.12v-68.18H1401.74z M1402.52,828.32
				c0,8.68,6.44,14.14,13.95,14.14c7.61,0,13.65-5.75,13.65-14.14c0-8.69-6.05-14.05-13.65-14.05
				C1408.96,814.27,1402.52,819.93,1402.52,828.32z"/>
			<path class="st0" d="M1472.33,784.23v68.18h-11.8v-68.18H1472.33z"/>
			<path class="st0" d="M1502.65,832.61c0.78,5.95,5.95,10.24,14.34,10.24c4.39,0,10.14-1.66,12.88-4.49l7.61,7.51
				c-5.07,5.27-13.36,7.8-20.67,7.8c-16.59,0-26.43-10.24-26.43-25.65c0-14.63,9.95-25.16,25.55-25.16
				c16.09,0,26.14,9.95,24.29,29.75H1502.65z M1528.79,822.76c-0.78-6.24-5.66-9.37-12.48-9.37c-6.44,0-11.71,3.12-13.46,9.37
				H1528.79z"/>
			<path class="st0" d="M1649.59,843.82c-7.02,6.92-16.09,10.14-25.94,10.14c-25.36,0-36.09-17.46-36.19-35.21
				c-0.1-17.85,11.51-35.99,36.19-35.99c9.26,0,18.05,3.51,25.07,10.44l-8.58,8.29c-4.49-4.38-10.54-6.44-16.48-6.44
				c-16.48,0-23.61,12.29-23.51,23.7c0.1,11.31,6.63,23.11,23.51,23.11c5.95,0,12.68-2.44,17.16-6.92L1649.59,843.82z"/>
			<path class="st0" d="M1712.47,828.41c0,13.85-9.46,25.07-25.07,25.07c-15.61,0-24.97-11.22-24.97-25.07
				c0-13.76,9.56-25.07,24.87-25.07C1702.62,803.35,1712.47,814.66,1712.47,828.41z M1674.33,828.41c0,7.32,4.39,14.14,13.07,14.14
				s13.07-6.83,13.07-14.14c0-7.22-5.07-14.24-13.07-14.24C1678.82,814.18,1674.33,821.2,1674.33,828.41z"/>
			<path class="st0" d="M1765.79,852.41v-25.16c0-7.32-4-12.88-11.6-12.88c-7.32,0-12.29,6.15-12.29,13.46v24.58h-11.8v-48.18h10.63
				l0.78,6.54c4.88-4.78,9.76-7.22,15.8-7.22c11.31,0,20.39,8.49,20.39,23.6v25.26H1765.79z"/>
			<path class="st0" d="M1829.07,817.1c-3.41-3.22-7.32-4.29-11.9-4.29c-5.66,0-8.78,1.76-8.78,4.78c0,3.12,2.83,4.87,8.97,5.27
				c9.07,0.59,20.58,2.64,20.58,15.41c0,8.49-6.92,15.8-20.68,15.8c-7.61,0-15.21-1.27-22.24-8.58l5.86-8.49
				c3.41,3.81,11.21,6.63,16.58,6.73c4.49,0.1,8.68-2.24,8.68-5.75c0-3.32-2.73-4.69-9.56-5.07c-9.07-0.69-19.9-4-19.9-14.93
				c0-11.12,11.51-15.02,20.29-15.02c7.51,0,13.17,1.46,18.73,6.34L1829.07,817.1z"/>
			<path class="st0" d="M1865.42,832.61c0.78,5.95,5.95,10.24,14.34,10.24c4.39,0,10.14-1.66,12.88-4.49l7.61,7.51
				c-5.07,5.27-13.36,7.8-20.67,7.8c-16.59,0-26.43-10.24-26.43-25.65c0-14.63,9.95-25.16,25.55-25.16
				c16.09,0,26.14,9.95,24.29,29.75H1865.42z M1891.56,822.76c-0.78-6.24-5.66-9.37-12.48-9.37c-6.44,0-11.71,3.12-13.46,9.37
				H1891.56z"/>
			<path class="st0" d="M1934.84,790.76c0,9.27-14.05,9.27-14.05,0C1920.79,781.5,1934.84,781.5,1934.84,790.76z M1921.86,804.13
				v48.28h11.9v-48.28H1921.86z"/>
			<path class="st0" d="M1966.03,784.23v68.18h-11.8v-68.18H1966.03z"/>
		</g>
	</g>
	<g>
		<path class="st1" d="M1700.2,134.3c-76.26,0-145.27,32.96-194.31,83.58c-48.18,51.41-80.28,122.07-80.28,201.56
			c0,57.34,17.4,110.8,45.81,155.49l58.07-57.21c-15.95-29-25.18-62.36-25.18-98.28c0-57.8,22.48-107.64,57.81-144.55
			c35.33-36.98,84.3-60.25,138.09-60.25c66.31,0,123.72,27.22,159.25,81.4l53.06-59.26C1863.6,172.07,1788.32,134.3,1700.2,134.3z
			 M1886.53,488.45c-28.87,85.16-101.18,134.13-186.34,134.13c-26.43,0-51.74-5.67-74.88-15.82l-60.24,59.39
			c39.75,23.33,85.95,36.71,135.12,36.71c130.9,0,233.66-86.68,265.83-214.42H1886.53z"/>
		<path class="st1" d="M423.88,533.45H222.32c-21.68,51.39-49.79,118.84-67.45,165.42H67.34l225.65-569.34h59.42l225.65,569.34
			h-86.73L423.88,533.45z M252.84,457.16h139.73l-69.06-198.35L252.84,457.16z"/>
		<path class="st1" d="M681.24,617.77h260.98v81.11H599.33V137.56h342.09v81.11H681.24v158.2H935.8v81.91H681.24V617.77z"/>
		<linearGradient id="SVGID_1_" gradientUnits="userSpaceOnUse" x1="1407.4813" y1="36.3973" x2="1630.5519" y2="649.2787">
			<stop  offset="0.0174" style="stop-color:#EBCD67"/>
			<stop  offset="0.0701" style="stop-color:#DEBA52"/>
			<stop  offset="0.165" style="stop-color:#CA9E32"/>
			<stop  offset="0.2566" style="stop-color:#BC8A1B"/>
			<stop  offset="0.3425" style="stop-color:#B37D0D"/>
			<stop  offset="0.4172" style="stop-color:#B07908"/>
			<stop  offset="0.5259" style="stop-color:#BB881A"/>
			<stop  offset="0.742" style="stop-color:#D6B047"/>
			<stop  offset="0.7757" style="stop-color:#DBB74F"/>
			<stop  offset="1" style="stop-color:#C0942A"/>
		</linearGradient>
		<path class="st2" d="M2105.91,119.3l-146.61,47.95l28.21,25.3l-231.99,259l-79.06-41.77l-214.2,211.19h-87.65h-257.74
			c81.09-67.44,101.97-81.87,181.5-147.75c151.76-105.98,93.95-339.66-118.85-339.66c-117.29,0-181.5,81.92-195.98,182.28
			l81.14,6.41c9.64-62.6,45.78-107.6,114.84-107.6c130.88,0,152.54,133.33,64.21,196.76h0.83l-264.2,224.83v62.65h513.93
			l196.24-193.32l82.44,43.59l272.69-304.44l28.47,25.54L2105.91,119.3z"/>
	</g>
</g>
</svg>
